<svg version="1.1" xmlns="http://www.w3.org/2000/svg" xmlns:xlink="http://www.w3.org/1999/xlink" width="419.67724609375" height="396"><defs/><g><g transform="translate(-2110,-110) scale(1,1)"><rect fill="#ffffff" stroke="none" x="2144" y="120" width="264" height="32"/></g><g transform="translate(-2110,-110) scale(1,1)"><path fill="none" stroke="#000000" d="M 2144 120 L 2408 120 L 2408 152 L 2144 152 L 2144 120 Z Z" stroke-miterlimit="10"/></g><g transform="translate(-2110,-110) scale(1,1)"><g><path fill="none" stroke="none"/><text fill="#000000" stroke="none" font-family="Arial" font-size="13px" font-style="normal" font-weight="normal" text-decoration="none" x="2256.5" y="142.5">浏览器</text></g></g><g transform="translate(-2110,-110) scale(1,1)"><rect fill="#ffffff" stroke="none" x="2144" y="184" width="264" height="32"/></g><g transform="translate(-2110,-110) scale(1,1)"><path fill="none" stroke="#000000" d="M 2144 184 L 2408 184 L 2408 216 L 2144 216 L 2144 184 Z Z" stroke-miterlimit="10"/></g><g transform="translate(-2110,-110) scale(1,1)"><g><path fill="none" stroke="none"/><text fill="#000000" stroke="none" font-family="Arial" font-size="13px" font-style="normal" font-weight="normal" text-decoration="none" x="2224.714111328125" y="206.5">Struts Framework</text></g></g><g transform="translate(-2110,-110) scale(1,1)"><g><path fill="none" stroke="none"/><text fill="#000000" stroke="none" font-family="Arial" font-size="13px" font-style="normal" font-weight="normal" text-decoration="none" x="2120" y="171">Http Request</text></g></g><g transform="translate(-2110,-110) scale(1,1)"><rect fill="#ffffff" stroke="none" x="2144" y="272" width="256" height="32"/></g><g transform="translate(-2110,-110) scale(1,1)"><path fill="none" stroke="#000000" d="M 2144 272 L 2400 272 L 2400 304 L 2144 304 L 2144 272 Z Z" stroke-miterlimit="10"/></g><g transform="translate(-2110,-110) scale(1,1)"><g><path fill="none" stroke="none"/><text fill="#000000" stroke="none" font-family="Arial" font-size="13px" font-style="normal" font-weight="normal" text-decoration="none" x="2219.622314453125" y="294.5">Action (Controller)</text></g></g><g transform="translate(-2110,-110) scale(1,1)"><path fill="none" stroke="#000000" d="M 2200 216 L 2200 272" stroke-miterlimit="10"/></g><g transform="translate(-2110,-110) scale(1,1)"><path fill="#000000" stroke="none" d="M 2195.790482243984 261.83732514237585 L 2200 272 L 2204.209517756016 261.83732514237585"/></g><g transform="translate(-2110,-110) scale(1,1)"><path fill="none" stroke="#000000" d="M 2195.790482243984 261.83732514237585 L 2200 272 L 2204.209517756016 261.83732514237585 L 2195.790482243984 261.83732514237585" stroke-miterlimit="10"/></g><g transform="translate(-2110,-110) scale(1,1)"><rect fill="#ffffff" stroke="none" x="2144" y="336" width="256" height="32"/></g><g transform="translate(-2110,-110) scale(1,1)"><path fill="none" stroke="#000000" d="M 2144 336 L 2400 336 L 2400 368 L 2144 368 L 2144 336 Z Z" stroke-miterlimit="10"/></g><g transform="translate(-2110,-110) scale(1,1)"><g><path fill="none" stroke="none"/><text fill="#000000" stroke="none" font-family="Arial" font-size="13px" font-style="normal" font-weight="normal" text-decoration="none" x="2250.325927734375" y="358.5">Service</text></g></g><g transform="translate(-2110,-110) scale(1,1)"><path fill="none" stroke="#000000" d="M 2200 304 L 2200 336" stroke-miterlimit="10"/></g><g transform="translate(-2110,-110) scale(1,1)"><path fill="#000000" stroke="none" d="M 2195.790482243984 325.83732514237585 L 2200 336 L 2204.209517756016 325.83732514237585"/></g><g transform="translate(-2110,-110) scale(1,1)"><path fill="none" stroke="#000000" d="M 2195.790482243984 325.83732514237585 L 2200 336 L 2204.209517756016 325.83732514237585 L 2195.790482243984 325.83732514237585" stroke-miterlimit="10"/></g><g transform="translate(-2110,-110) scale(1,1)"><rect fill="#ffffff" stroke="none" x="2144" y="400" width="256" height="32"/></g><g transform="translate(-2110,-110) scale(1,1)"><path fill="none" stroke="#000000" d="M 2144 400 L 2400 400 L 2400 432 L 2144 432 L 2144 400 Z Z" stroke-miterlimit="10"/></g><g transform="translate(-2110,-110) scale(1,1)"><g><path fill="none" stroke="none"/><text fill="#000000" stroke="none" font-family="Arial" font-size="13px" font-style="normal" font-weight="normal" text-decoration="none" x="2260.075927734375" y="422.5">Dao</text></g></g><g transform="translate(-2110,-110) scale(1,1)"><path fill="none" stroke="#000000" d="M 2200 368 L 2200 400" stroke-miterlimit="10"/></g><g transform="translate(-2110,-110) scale(1,1)"><path fill="#000000" stroke="none" d="M 2195.790482243984 389.83732514237585 L 2200 400 L 2204.209517756016 389.83732514237585"/></g><g transform="translate(-2110,-110) scale(1,1)"><path fill="none" stroke="#000000" d="M 2195.790482243984 389.83732514237585 L 2200 400 L 2204.209517756016 389.83732514237585 L 2195.790482243984 389.83732514237585" stroke-miterlimit="10"/></g><g transform="translate(-2110,-110) scale(1,1)"><rect fill="#ffffff" stroke="none" x="2144" y="464" width="256" height="32"/></g><g transform="translate(-2110,-110) scale(1,1)"><path fill="none" stroke="#000000" d="M 2144 464 L 2400 464 L 2400 496 L 2144 496 L 2144 464 Z Z" stroke-miterlimit="10"/></g><g transform="translate(-2110,-110) scale(1,1)"><g><path fill="none" stroke="none"/><text fill="#000000" stroke="none" font-family="Arial" font-size="13px" font-style="normal" font-weight="normal" text-decoration="none" x="2209.50732421875" y="486.5">Hibernate Framework</text></g></g><g transform="translate(-2110,-110) scale(1,1)"><path fill="none" stroke="#000000" d="M 2200 432 L 2200 464" stroke-miterlimit="10"/></g><g transform="translate(-2110,-110) scale(1,1)"><path fill="#000000" stroke="none" d="M 2195.790482243984 453.83732514237585 L 2200 464 L 2204.209517756016 453.83732514237585"/></g><g transform="translate(-2110,-110) scale(1,1)"><path fill="none" stroke="#000000" d="M 2195.790482243984 453.83732514237585 L 2200 464 L 2204.209517756016 453.83732514237585 L 2195.790482243984 453.83732514237585" stroke-miterlimit="10"/></g><g transform="translate(-2110,-110) scale(1,1)"><path fill="none" stroke="#000000" d="M 2336 336 L 2336 304" stroke-miterlimit="10"/></g><g transform="translate(-2110,-110) scale(1,1)"><path fill="#000000" stroke="none" d="M 2340.209517756016 314.16267485762415 L 2336 304 L 2331.790482243984 314.16267485762415"/></g><g transform="translate(-2110,-110) scale(1,1)"><path fill="none" stroke="#000000" d="M 2340.209517756016 314.16267485762415 L 2336 304 L 2331.790482243984 314.16267485762415 L 2340.209517756016 314.16267485762415" stroke-miterlimit="10"/></g><g transform="translate(-2110,-110) scale(1,1)"><path fill="none" stroke="#000000" d="M 2336 400 L 2336 368" stroke-miterlimit="10"/></g><g transform="translate(-2110,-110) scale(1,1)"><path fill="#000000" stroke="none" d="M 2340.209517756016 378.16267485762415 L 2336 368 L 2331.790482243984 378.16267485762415"/></g><g transform="translate(-2110,-110) scale(1,1)"><path fill="none" stroke="#000000" d="M 2340.209517756016 378.16267485762415 L 2336 368 L 2331.790482243984 378.16267485762415 L 2340.209517756016 378.16267485762415" stroke-miterlimit="10"/></g><g transform="translate(-2110,-110) scale(1,1)"><path fill="none" stroke="#000000" d="M 2200 152 L 2200 184" stroke-miterlimit="10"/></g><g transform="translate(-2110,-110) scale(1,1)"><path fill="#000000" stroke="none" d="M 2195.790482243984 173.83732514237585 L 2200 184 L 2204.209517756016 173.83732514237585"/></g><g transform="translate(-2110,-110) scale(1,1)"><path fill="none" stroke="#000000" d="M 2195.790482243984 173.83732514237585 L 2200 184 L 2204.209517756016 173.83732514237585 L 2195.790482243984 173.83732514237585" stroke-miterlimit="10"/></g><g transform="translate(-2110,-110) scale(1,1)"><g><path fill="none" stroke="none"/><text fill="#000000" stroke="none" font-family="Arial" font-size="13px" font-style="normal" font-weight="normal" text-decoration="none" x="2120" y="171">Http Request</text></g></g><g transform="translate(-2110,-110) scale(1,1)"><path fill="none" stroke="#000000" d="M 2336 464 L 2336 432" stroke-miterlimit="10"/></g><g transform="translate(-2110,-110) scale(1,1)"><path fill="#000000" stroke="none" d="M 2340.209517756016 442.16267485762415 L 2336 432 L 2331.790482243984 442.16267485762415"/></g><g transform="translate(-2110,-110) scale(1,1)"><path fill="none" stroke="#000000" d="M 2340.209517756016 442.16267485762415 L 2336 432 L 2331.790482243984 442.16267485762415 L 2340.209517756016 442.16267485762415" stroke-miterlimit="10"/></g><g transform="translate(-2110,-110) scale(1,1)"><path fill="none" stroke="#000000" d="M 2336 272 L 2336 216" stroke-miterlimit="10"/></g><g transform="translate(-2110,-110) scale(1,1)"><path fill="#000000" stroke="none" d="M 2340.209517756016 226.16267485762415 L 2336 216 L 2331.790482243984 226.16267485762415"/></g><g transform="translate(-2110,-110) scale(1,1)"><path fill="none" stroke="#000000" d="M 2340.209517756016 226.16267485762415 L 2336 216 L 2331.790482243984 226.16267485762415 L 2340.209517756016 226.16267485762415" stroke-miterlimit="10"/></g><g transform="translate(-2110,-110) scale(1,1)"><g><path fill="none" stroke="none"/><text fill="#000000" stroke="none" font-family="Arial" font-size="13px" font-style="normal" font-weight="normal" text-decoration="none" x="2343" y="248">Json-result</text></g></g><g transform="translate(-2110,-110) scale(1,1)"><path fill="none" stroke="#000000" d="M 2336 184 L 2336 152" stroke-miterlimit="10"/></g><g transform="translate(-2110,-110) scale(1,1)"><path fill="#000000" stroke="none" d="M 2340.209517756016 162.16267485762415 L 2336 152 L 2331.790482243984 162.16267485762415"/></g><g transform="translate(-2110,-110) scale(1,1)"><path fill="none" stroke="#000000" d="M 2340.209517756016 162.16267485762415 L 2336 152 L 2331.790482243984 162.16267485762415 L 2340.209517756016 162.16267485762415" stroke-miterlimit="10"/></g><g transform="translate(-2110,-110) scale(1,1)"><g><path fill="none" stroke="none"/><text fill="#000000" stroke="none" font-family="Arial" font-size="13px" font-style="normal" font-weight="normal" text-decoration="none" x="2343" y="172">Http Response</text></g></g><g transform="translate(-2110,-110) scale(1,1)"><rect fill="#ffffff" stroke="none" x="2440" y="120" width="79.67724609375" height="376"/></g><g transform="translate(-2110,-110) scale(1,1)"><path fill="none" stroke="#000000" d="M 2440 120 L 2519.67724609375 120 L 2519.67724609375 496 L 2440 496 L 2440 120 Z Z" stroke-miterlimit="10"/></g><g transform="translate(-2110,-110) scale(1,1)"><g><path fill="none" stroke="none"/><text fill="#000000" stroke="none" font-family="Arial" font-size="13px" font-style="normal" font-weight="normal" text-decoration="none" x="2461.049560546875" y="142.5">Spring</text><text fill="#000000" stroke="none" font-family="Arial" font-size="13px" font-style="normal" font-weight="normal" text-decoration="none" x="2449.5" y="155.5">Framewok</text></g></g><g transform="translate(-2110,-110) scale(1,1)"><path fill="none" stroke="#000000" d="M 2400 344 L 2440 344" stroke-miterlimit="10"/></g><g transform="translate(-2110,-110) scale(1,1)"><path fill="#000000" stroke="none" d="M 2429.837325142376 348.209517756016 L 2440 344 L 2429.837325142376 339.790482243984"/></g><g transform="translate(-2110,-110) scale(1,1)"><path fill="none" stroke="#000000" d="M 2429.837325142376 348.209517756016 L 2440 344 L 2429.837325142376 339.790482243984 L 2429.837325142376 348.209517756016" stroke-miterlimit="10"/></g><g transform="translate(-2110,-110) scale(1,1)"><path fill="none" stroke="#000000" d="M 2440 288 L 2400 288" stroke-miterlimit="10"/></g><g transform="translate(-2110,-110) scale(1,1)"><path fill="#000000" stroke="none" d="M 2410.162674857624 283.790482243984 L 2400 288 L 2410.162674857624 292.209517756016"/></g><g transform="translate(-2110,-110) scale(1,1)"><path fill="none" stroke="#000000" d="M 2410.162674857624 283.790482243984 L 2400 288 L 2410.162674857624 292.209517756016 L 2410.162674857624 283.790482243984" stroke-miterlimit="10"/></g><g transform="translate(-2110,-110) scale(1,1)"><path fill="none" stroke="#000000" d="M 2400 288 L 2440 288" stroke-miterlimit="10"/></g><g transform="translate(-2110,-110) scale(1,1)"><path fill="#000000" stroke="none" d="M 2429.837325142376 292.209517756016 L 2440 288 L 2429.837325142376 283.790482243984"/></g><g transform="translate(-2110,-110) scale(1,1)"><path fill="none" stroke="#000000" d="M 2429.837325142376 292.209517756016 L 2440 288 L 2429.837325142376 283.790482243984 L 2429.837325142376 292.209517756016" stroke-miterlimit="10"/></g><g transform="translate(-2110,-110) scale(1,1)"><path fill="none" stroke="#000000" d="M 2440 344 L 2400 344" stroke-miterlimit="10"/></g><g transform="translate(-2110,-110) scale(1,1)"><path fill="#000000" stroke="none" d="M 2410.162674857624 339.790482243984 L 2400 344 L 2410.162674857624 348.209517756016"/></g><g transform="translate(-2110,-110) scale(1,1)"><path fill="none" stroke="#000000" d="M 2410.162674857624 339.790482243984 L 2400 344 L 2410.162674857624 348.209517756016 L 2410.162674857624 339.790482243984" stroke-miterlimit="10"/></g><g transform="translate(-2110,-110) scale(1,1)"><path fill="none" stroke="#000000" d="M 2400 400 L 2440 400" stroke-miterlimit="10"/></g><g transform="translate(-2110,-110) scale(1,1)"><path fill="#000000" stroke="none" d="M 2429.837325142376 404.209517756016 L 2440 400 L 2429.837325142376 395.790482243984"/></g><g transform="translate(-2110,-110) scale(1,1)"><path fill="none" stroke="#000000" d="M 2429.837325142376 404.209517756016 L 2440 400 L 2429.837325142376 395.790482243984 L 2429.837325142376 404.209517756016" stroke-miterlimit="10"/></g><g transform="translate(-2110,-110) scale(1,1)"><path fill="none" stroke="#000000" d="M 2440 400 L 2400 400" stroke-miterlimit="10"/></g><g transform="translate(-2110,-110) scale(1,1)"><path fill="#000000" stroke="none" d="M 2410.162674857624 395.790482243984 L 2400 400 L 2410.162674857624 404.209517756016"/></g><g transform="translate(-2110,-110) scale(1,1)"><path fill="none" stroke="#000000" d="M 2410.162674857624 395.790482243984 L 2400 400 L 2410.162674857624 404.209517756016 L 2410.162674857624 395.790482243984" stroke-miterlimit="10"/></g><g transform="translate(-2110,-110) scale(1,1)"><path fill="none" stroke="#000000" d="M 2400 464 L 2440 464" stroke-miterlimit="10"/></g><g transform="translate(-2110,-110) scale(1,1)"><path fill="#000000" stroke="none" d="M 2429.837325142376 468.209517756016 L 2440 464 L 2429.837325142376 459.790482243984"/></g><g transform="translate(-2110,-110) scale(1,1)"><path fill="none" stroke="#000000" d="M 2429.837325142376 468.209517756016 L 2440 464 L 2429.837325142376 459.790482243984 L 2429.837325142376 468.209517756016" stroke-miterlimit="10"/></g><g transform="translate(-2110,-110) scale(1,1)"><path fill="none" stroke="#000000" d="M 2440 464 L 2400 464" stroke-miterlimit="10"/></g><g transform="translate(-2110,-110) scale(1,1)"><path fill="#000000" stroke="none" d="M 2410.162674857624 459.790482243984 L 2400 464 L 2410.162674857624 468.209517756016"/></g><g transform="translate(-2110,-110) scale(1,1)"><path fill="none" stroke="#000000" d="M 2410.162674857624 459.790482243984 L 2400 464 L 2410.162674857624 468.209517756016 L 2410.162674857624 459.790482243984" stroke-miterlimit="10"/></g></g></svg>